# xmcd
#
# Track frame offsets:
#	150
#	12899
#	25780
#	37611
#	49654
#	63762
#	73189
#	92540
#	101766
#	115381
#	123482
#	138972
#
# Disc length: 2018 seconds
#
# Revision: 0
# Processed by: cddbd v1.5.2PL0 Copyright (c) Steve Scherf et al.
# Submitted via: audiograbber 1.83.01
#
DISCID=9507e00c
DTITLE=Andy Williams - Andy Williams Sings
DYEAR=1900
DGENRE=
TTITLE0=Tonight
TTITLE1=Impossible
TTITLE2=Young Love
TTITLE3=All The Way Home
TTITLE4=Lonely Love
TTITLE5=Forbidden Love
TTITLE6=Some Enchanted Evening
TTITLE7=Getting To Know You
TTITLE8=People Will Say We're In Love
TTITLE9=I Whistle A Happy Tune
TTITLE10=The Surrey With The Fringe On Top
TTITLE11=Hello Youg Lovers
EXTD=
EXTT0=
EXTT1=
EXTT2=
EXTT3=
EXTT4=
EXTT5=
EXTT6=
EXTT7=
EXTT8=
EXTT9=
EXTT10=
EXTT11=
PLAYORDER=
